<svg xmlns="http://www.w3.org/2000/svg" xmlns:xlink="http://www.w3.org/1999/xlink" width="600" height="920"><g transform="translate(-380.00000003599973 20)"><path d="M640 40c0 22.1-17.9 40-40 40s-40-17.9-40-40 17.9-40 40-40 40 17.9 40 40z" stroke="#03a9f4" stroke-width="3" fill="none"/><use xlink:href="#a" transform="matrix(1,0,0,1,565,5) translate(10.377777777777773 44.022222222222226)"/><path d="M640 200c0 22.1-17.9 40-40 40s-40-17.9-40-40 17.9-40 40-40 40 17.9 40 40z" stroke="#03a9f4" stroke-width="3" fill="none"/><use xlink:href="#b" transform="matrix(1,0,0,1,565,164.99942251980474) translate(25.04 51.24)"/><path d="M800 200c0 22.1-17.9 40-40 40s-40-17.9-40-40 17.9-40 40-40 40 17.9 40 40z" stroke="#03a9f4" stroke-width="3" fill="none"/><use xlink:href="#a" transform="matrix(1,0,0,1,725,165) translate(10.377777777777773 44.022222222222226)"/><path d="M800 360c0 22.1-17.9 40-40 40s-40-17.9-40-40 17.9-40 40-40 40 17.9 40 40z" stroke="#03a9f4" stroke-width="3" fill="none"/><use xlink:href="#b" transform="matrix(1,0,0,1,724.9999999640003,324.9994225198001) translate(25.04 51.24)"/><path d="M960 360c0 22.1-17.9 40-40 40s-40-17.9-40-40 17.9-40 40-40 40 17.9 40 40z" stroke="#03a9f4" stroke-width="3" fill="none"/><use xlink:href="#a" transform="matrix(1,0,0,1,884.9999999280005,324.9994225198001) translate(10.377777777777773 44.022222222222226)"/><path d="M640 360c0 22.1-17.9 40-40 40s-40-17.9-40-40 17.9-40 40-40 40 17.9 40 40z" stroke="#03a9f4" stroke-width="3" fill="none"/><use xlink:href="#c" transform="matrix(1,0,0,1,565,324.99882252579994) translate(8.044444444444444 44.022222222222226)"/><path d="M640 480c0 22.1-17.9 40-40 40s-40-17.9-40-40 17.9-40 40-40 40 17.9 40 40z" stroke="#03a9f4" stroke-width="3" fill="none"/><use xlink:href="#d" transform="matrix(1,0,0,1,565,444.9988225258) translate(2.9777777777777743 44.022222222222226)"/><path d="M640 600c0 22.1-17.9 40-40 40s-40-17.9-40-40 17.9-40 40-40 40 17.9 40 40z" stroke="#03a9f4" stroke-width="3" fill="none"/><use xlink:href="#e" transform="matrix(1,0,0,1,565,564.9988225258) translate(9.477777777777778 44.022222222222226)"/><path d="M640 720c0 22.1-17.9 40-40 40s-40-17.9-40-40 17.9-40 40-40 40 17.9 40 40z" stroke="#03a9f4" stroke-width="3" fill="none"/><use xlink:href="#f" transform="matrix(1,0,0,1,565,684.9988225257999) translate(25.41777777777778 49.43555555555555)"/><path d="M960 480c0 22.1-17.9 40-40 40s-40-17.9-40-40 17.9-40 40-40 40 17.9 40 40z" stroke="#03a9f4" stroke-width="3" fill="none"/><use xlink:href="#c" transform="matrix(1,0,0,1,884.9999999280005,444.99942251979996) translate(8.044444444444444 44.022222222222226)"/><path d="M960 600c0 22.1-17.9 40-40 40s-40-17.9-40-40 17.9-40 40-40 40 17.9 40 40z" stroke="#03a9f4" stroke-width="3" fill="none"/><use xlink:href="#d" transform="matrix(1,0,0,1,884.9999999280005,564.9994225198) translate(2.9777777777777743 44.022222222222226)"/><path d="M600 80v.62l-.05.6-.06.62-.1.6-.12.6-.14.58-.16.6-.2.6-.22.6-.26.6-.3.62-.32.63-.37.65-.4.66-.5.7-.53.7-.62.75-.7.78-.8.83-.93.86-1.07.92-1.25 1-1.48 1.06-1.77 1.17-2.13 1.3-2.62 1.43-3.3 1.63-4.24 1.9-5.72 2.26-8.22 2.85-13.8 4.13-69.04 18.46-8.22 2.84-5.72 2.26-4.25 1.9-3.3 1.62-2.62 1.44-2.13 1.3-1.77 1.16-1.48 1.07-1.25.98-1.07.93-.93.87-.8.82-.7.77-.62.75-.54.7-.5.7-.4.66-.38.65-.33.63-.3.62-.26.6-.22.6-.2.6-.16.6-.14.6-.12.58-.1.6-.05.6-.04.62v.62" stroke="#03a9f4" stroke-width="3" fill="none"/><path d="M601.34 80.68L600 80l1.7-.06zM450.57 149.36L440 160l2.3-14.82z" fill="#03a9f4"/><path d="M453.1 148.95L442 160.12l-2-.12-1.53.05 2.66-17.14zm-10.9 6.72l5.85-5.9-4.6-2.32z" fill="#03a9f4"/><path d="M600 80v.62l.05.6.06.62.1.6.12.6.14.58.16.6.2.6.22.6.26.6.3.62.32.63.37.65.4.66.5.7.53.7.62.75.7.78.8.83.93.86 1.07.92 1.25 1 1.48 1.06 1.77 1.17 2.13 1.3 2.62 1.43 3.3 1.63 4.24 1.9 5.72 2.26 8.22 2.85 13.8 4.13 69.04 18.46 8.22 2.84 5.72 2.26 4.25 1.9 3.3 1.62 2.62 1.44 2.13 1.3 1.77 1.16 1.48 1.07 1.25.98 1.07.93.93.87.8.82.7.77.62.75.54.7.5.7.4.66.38.65.33.63.3.62.26.6.22.6.2.6.16.6.14.6.12.58.1.6.05.6.04.62v.62" stroke="#03a9f4" stroke-width="3" fill="none"/><path d="M600 80l-1.34.68-.4-.8zM760 160l-10.57-10.64 8.28-4.18z" fill="#03a9f4"/><path d="M761.53 160.1L760 160l-2.04.07-11.05-11.12 11.97-6.04zm-9.58-10.34l5.86 5.9-1.26-8.2z" fill="#03a9f4"/><path d="M600 80v78.5" stroke="#03a9f4" stroke-width="3" fill="none"/><path d="M600 80l1.5-.05V80h-3v-.1zM600 158.5l-4.64-14.27h9.28z" fill="#03a9f4"/><path d="M601.07 160.07L600 160l-1.08.04-5.62-17.3h13.4zm-3.64-14.34l2.57 7.9 2.57-7.9z" fill="#03a9f4"/><path d="M760 240v78.5" stroke="#03a9f4" stroke-width="3" fill="none"/><path d="M760 240l1.5-.05v.05h-3v-.1zM760 318.5l-4.64-14.27h9.28z" fill="#03a9f4"/><path d="M761.07 320.07L760 320l-1.08.04-5.62-17.3h13.4zm-3.64-14.34l2.57 7.9 2.57-7.9z" fill="#03a9f4"/><path d="M760 240v.62l-.05.6-.06.62-.1.6-.12.6-.14.58-.16.6-.2.6-.22.6-.26.6-.3.62-.32.63-.37.65-.4.66-.5.7-.53.7-.62.75-.7.78-.8.82-.93.87-1.07.92-1.25 1-1.48 1.06-1.77 1.17-2.13 1.3-2.62 1.43-3.3 1.63-4.24 1.9-5.72 2.25-8.22 2.86-13.78 4.13-69.06 18.46-8.22 2.84-5.72 2.26-4.25 1.9-3.3 1.62-2.62 1.44-2.13 1.3-1.77 1.16-1.48 1.07-1.25.98-1.07.93-.93.87-.8.82-.7.77-.62.74-.54.73-.5.68-.4.68-.38.65-.33.63-.3.62-.26.6-.22.6-.2.6-.16.6-.14.6-.12.58-.1.6-.05.6-.04.62v.62" stroke="#03a9f4" stroke-width="3" fill="none"/><path d="M761.34 240.68L760 240l1.7-.06zM610.57 309.35L600 320l2.3-14.82z" fill="#03a9f4"/><path d="M613.1 308.95L602 320.12l-2-.12-1.53.05 2.66-17.14zm-10.9 6.72l5.85-5.9-4.6-2.33z" fill="#03a9f4"/><path d="M760 240v.62l.05.6.06.62.1.6.12.6.14.58.16.6.2.6.22.6.26.6.3.62.32.63.37.65.4.66.5.7.53.7.62.75.7.78.8.83.93.86 1.07.92 1.25 1 1.48 1.06 1.77 1.17 2.13 1.3 2.62 1.43 3.3 1.63 4.24 1.9 5.72 2.25 8.22 2.86 13.78 4.13 69.06 18.46 8.22 2.84 5.72 2.26 4.25 1.9 3.3 1.62 2.62 1.44 2.13 1.3 1.77 1.16 1.48 1.07 1.25.98 1.07.93.93.87.8.82.7.77.62.75.54.7.5.7.4.66.38.65.33.63.3.62.26.6.22.6.2.6.16.6.14.6.12.58.1.6.05.6.04.62v.62" stroke="#03a9f4" stroke-width="3" fill="none"/><path d="M760 240l-1.34.68-.4-.8zM920 320l-10.57-10.65 8.28-4.17z" fill="#03a9f4"/><path d="M921.53 320.1L920 320l-2.04.07-11.05-11.12 11.97-6.04zm-9.58-10.34l5.86 5.9-1.26-8.2z" fill="#03a9f4"/><path d="M600 400v38.5" stroke="#03a9f4" stroke-width="3" fill="none"/><path d="M600 400l1.5-.05v.05h-3v-.1zM600 438.5l-4.64-14.27h9.28z" fill="#03a9f4"/><path d="M601.07 440.07L600 440l-1.08.04-5.62-17.3h13.4zm-3.64-14.34l2.57 7.9 2.57-7.9z" fill="#03a9f4"/><path d="M600 520v38.5" stroke="#03a9f4" stroke-width="3" fill="none"/><path d="M600 520l1.5-.05v.05h-3v-.1zM600 558.5l-4.64-14.27h9.28z" fill="#03a9f4"/><path d="M601.07 560.07L600 560l-1.08.04-5.62-17.3h13.4zm-3.64-14.34l2.57 7.9 2.57-7.9z" fill="#03a9f4"/><path d="M600 640v38.5" stroke="#03a9f4" stroke-width="3" fill="none"/><path d="M600 640l1.5-.05v.05h-3v-.1zM600 678.5l-4.64-14.27h9.28z" fill="#03a9f4"/><path d="M601.07 680.07L600 680l-1.08.04-5.62-17.3h13.4zm-3.64-14.34l2.57 7.9 2.57-7.9z" fill="#03a9f4"/><path d="M920 400v38.5" stroke="#03a9f4" stroke-width="3" fill="none"/><path d="M920 400l1.5-.05v.05h-3v-.1zM920 438.5l-4.64-14.27h9.28z" fill="#03a9f4"/><path d="M921.07 440.07L920 440l-1.08.04-5.62-17.3h13.4zm-3.64-14.34l2.57 7.9 2.57-7.9z" fill="#03a9f4"/><path d="M920 520v38.5" stroke="#03a9f4" stroke-width="3" fill="none"/><path d="M920 520l1.5-.05v.05h-3v-.1zM920 558.5l-4.64-14.27h9.28z" fill="#03a9f4"/><path d="M921.07 560.07L920 560l-1.08.04-5.62-17.3h13.4zm-3.64-14.34l2.57 7.9 2.57-7.9z" fill="#03a9f4"/><path d="M960 720c0 22.1-17.9 40-40 40s-40-17.9-40-40 17.9-40 40-40 40 17.9 40 40z" stroke="#03a9f4" stroke-width="3" fill="none"/><use xlink:href="#e" transform="matrix(1,0,0,1,885,684.9994225198046) translate(9.477777777777778 44.022222222222226)"/><path d="M960 840c0 22.1-17.9 40-40 40s-40-17.9-40-40 17.9-40 40-40 40 17.9 40 40z" stroke="#03a9f4" stroke-width="3" fill="none"/><use xlink:href="#g" transform="matrix(1,0,0,1,885,804.9994225198045) translate(24.35111111111111 49.43555555555555)"/><path d="M920 640v38.5" stroke="#03a9f4" stroke-width="3" fill="none"/><path d="M920 678.5l-4.64-14.27h9.28z" fill="#03a9f4"/><path d="M921.07 680.07L920 680l-1.08.04-5.62-17.3h13.4zm-3.64-14.34l2.57 7.9 2.57-7.9z" fill="#03a9f4"/><path d="M920 760v38.5" stroke="#03a9f4" stroke-width="3" fill="none"/><path d="M920 760l1.5-.05v.05h-3v-.1zM920 798.5l-4.64-14.27h9.28z" fill="#03a9f4"/><path d="M921.07 800.07L920 800l-1.08.04-5.62-17.3h13.4zm-3.64-14.34l2.57 7.9 2.57-7.9z" fill="#03a9f4"/><path d="M480 200c0 22.1-17.9 40-40 40s-40-17.9-40-40 17.9-40 40-40 40 17.9 40 40z" stroke="#03a9f4" stroke-width="3" fill="none"/><use xlink:href="#c" transform="matrix(1,0,0,1,405.00000003599973,165) translate(8.044444444444444 44.022222222222226)"/><path d="M480 320c0 22.1-17.9 40-40 40s-40-17.9-40-40 17.9-40 40-40 40 17.9 40 40z" stroke="#03a9f4" stroke-width="3" fill="none"/><use xlink:href="#d" transform="matrix(1,0,0,1,405.00000003599973,285.00000000000006) translate(2.9777777777777743 44.022222222222226)"/><path d="M480 440c0 22.1-17.9 40-40 40s-40-17.9-40-40 17.9-40 40-40 40 17.9 40 40z" stroke="#03a9f4" stroke-width="3" fill="none"/><use xlink:href="#e" transform="matrix(1,0,0,1,405.00000003599973,405.0000000000001) translate(9.477777777777778 44.022222222222226)"/><path d="M480 560c0 22.1-17.9 40-40 40s-40-17.9-40-40 17.9-40 40-40 40 17.9 40 40z" stroke="#03a9f4" stroke-width="3" fill="none"/><use xlink:href="#h" transform="matrix(1,0,0,1,405.00000003599973,525) translate(24.546666666666667 49.43555555555555)"/><path d="M440 240v38.5" stroke="#03a9f4" stroke-width="3" fill="none"/><path d="M440 240l1.5-.05v.05h-3v-.1zM440 278.5l-4.64-14.27h9.28z" fill="#03a9f4"/><path d="M441.07 280.07L440 280l-1.08.04-5.62-17.3h13.4zm-3.64-14.34l2.57 7.9 2.57-7.9z" fill="#03a9f4"/><path d="M440 360v38.5" stroke="#03a9f4" stroke-width="3" fill="none"/><path d="M440 360l1.5-.05v.05h-3v-.1zM440 398.5l-4.64-14.27h9.28z" fill="#03a9f4"/><path d="M441.07 400.07L440 400l-1.08.04-5.62-17.3h13.4zm-3.64-14.34l2.57 7.9 2.57-7.9z" fill="#03a9f4"/><path d="M440 480v38.5" stroke="#03a9f4" stroke-width="3" fill="none"/><path d="M440 480l1.5-.05v.05h-3v-.1zM440 518.5l-4.64-14.27h9.28z" fill="#03a9f4"/><path d="M441.07 520.07L440 520l-1.08.04-5.62-17.3h13.4zm-3.64-14.34l2.57 7.9 2.57-7.9z" fill="#03a9f4"/><defs><path fill="#03a9f4" d="M304-536c187 0 263 122 249 314H151c18 82 81 133 165 133 58 0 111-22 150-62l61 65C475-29 399 4 307 4 143 4 35-105 35-265c0-161 111-271 269-271zM149-306h304c-4-86-61-138-148-138-84 0-143 53-156 138" id="i"/><path fill="#03a9f4" d="M278-350l121-182h126L354-273 537 0H405L278-195 142 0H14l188-273L27-532h132" id="j"/><path fill="#03a9f4" d="M391-536c151 0 254 110 254 272C645-105 545 4 393 4c-85 0-149-34-188-96v286H90v-726h115v92c39-62 103-96 186-96zM367-94c95 0 162-72 162-174 0-99-67-172-162-172s-162 72-162 172c0 103 67 174 162 174" id="k"/><path fill="#03a9f4" d="M200-532v106c36-72 100-110 184-110v110c-107-6-184 57-184 148V0H85v-532h115" id="l"/><g id="a"><use transform="matrix(0.022222222222222223,0,0,0.022222222222222223,0,0)" xlink:href="#i"/><use transform="matrix(0.022222222222222223,0,0,0.022222222222222223,13.066666666666666,0)" xlink:href="#j"/><use transform="matrix(0.022222222222222223,0,0,0.022222222222222223,25.37777777777778,0)" xlink:href="#k"/><use transform="matrix(0.022222222222222223,0,0,0.022222222222222223,40.488888888888894,0)" xlink:href="#l"/></g><path fill="#03a9f4" d="M463-285H287v175h-75v-175H35v-79h177v-175h75v175h176v79" id="m"/><use transform="matrix(0.04,0,0,0.04,0,0)" xlink:href="#m" id="b"/><path fill="#03a9f4" d="M357-122l29 88C275 36 106 20 106-150v-276H31v-86h75v-146h114v146h157v86H220v255c0 97 77 78 137 49" id="n"/><path fill="#03a9f4" d="M779-536c122 0 195 78 195 205V0H859v-299c0-81-48-130-126-130-91 0-146 73-146 166V0H472v-299c0-81-47-130-125-130-92 0-148 73-148 166V0H85v-532h114v103c37-75 105-107 193-107 95 0 160 47 185 128 34-89 105-128 202-128" id="o"/><g id="c"><use transform="matrix(0.022222222222222223,0,0,0.022222222222222223,0,0)" xlink:href="#n"/><use transform="matrix(0.022222222222222223,0,0,0.022222222222222223,8.911111111111111,0)" xlink:href="#i"/><use transform="matrix(0.022222222222222223,0,0,0.022222222222222223,21.977777777777778,0)" xlink:href="#l"/><use transform="matrix(0.022222222222222223,0,0,0.022222222222222223,30.733333333333334,0)" xlink:href="#o"/></g><path fill="#03a9f4" d="M366-622c-51-39-144-38-145 47v63h139v86H221V0H107v-426H37v-86h70v-52c1-175 182-226 303-146" id="p"/><path fill="#03a9f4" d="M404 0v-65C366-18 305 5 228 5 113 5 41-66 41-160c0-97 73-160 201-160h161c5-80-37-122-127-123-51 0-104 18-157 54l-47-80c74-44 128-67 229-67 137 0 214 70 215 187l1 349H404zM252-86c100 0 165-47 151-150-94 5-254-26-254 71 0 48 39 79 103 79" id="q"/><path fill="#03a9f4" d="M303-536c96 0 171 31 220 87l-63 74c-37-38-88-60-152-60-92 0-158 69-158 170S216-95 308-95c67 0 121-22 157-64l64 64C481-32 404 4 303 4 145 4 35-105 35-265c0-161 110-271 268-271" id="r"/><path fill="#03a9f4" d="M313-536c164 0 277 109 277 270C590-106 477 4 313 4 148 4 35-106 35-266c0-161 113-270 278-270zm0 99c-96 0-163 70-163 172 0 103 67 173 163 173 95 0 162-70 162-173 0-102-67-172-162-172" id="s"/><g id="d"><use transform="matrix(0.022222222222222223,0,0,0.022222222222222223,0,0)" xlink:href="#p"/><use transform="matrix(0.022222222222222223,0,0,0.022222222222222223,6.933333333333334,0)" xlink:href="#q"/><use transform="matrix(0.022222222222222223,0,0,0.022222222222222223,19.955555555555556,0)" xlink:href="#r"/><use transform="matrix(0.022222222222222223,0,0,0.022222222222222223,32.48888888888889,0)" xlink:href="#n"/><use transform="matrix(0.022222222222222223,0,0,0.022222222222222223,41.4,0)" xlink:href="#s"/><use transform="matrix(0.022222222222222223,0,0,0.022222222222222223,55.28888888888889,0)" xlink:href="#l"/></g><path fill="#03a9f4" d="M592-742V0H477v-91C439-29 375 5 290 5 137 5 35-106 35-268c0-160 103-269 253-269 86 0 150 35 189 97v-302h115zM314-91c96 0 163-72 163-173 0-103-67-175-163-175s-164 73-164 175c0 101 67 173 164 173" id="t"/><path fill="#03a9f4" d="M142-754c38 0 67 29 67 70 0 40-29 69-67 69s-67-29-67-69c0-41 29-70 67-70zM199 0H85v-532h114V0" id="u"/><path fill="#03a9f4" d="M565-532v480c0 153-109 249-276 249-83 0-156-26-221-70l49-83c50 37 102 58 167 58 101 0 167-59 167-151v-67c-36 58-96 90-176 90C131-26 35-130 35-283c0-150 95-252 236-253 82-1 143 32 180 90v-86h114zM298-116c90 0 153-68 153-164s-63-163-153-163c-91 0-155 68-155 163 0 96 63 164 155 164" id="v"/><g id="e"><use transform="matrix(0.022222222222222223,0,0,0.022222222222222223,0,0)" xlink:href="#t"/><use transform="matrix(0.022222222222222223,0,0,0.022222222222222223,15.155555555555557,0)" xlink:href="#u"/><use transform="matrix(0.022222222222222223,0,0,0.022222222222222223,21.46666666666667,0)" xlink:href="#v"/><use transform="matrix(0.022222222222222223,0,0,0.022222222222222223,35.68888888888889,0)" xlink:href="#u"/><use transform="matrix(0.022222222222222223,0,0,0.022222222222222223,42,0)" xlink:href="#n"/></g><path fill="#03a9f4" d="M262-409c133 4 233 69 233 192C495-86 396 5 240 5 154 5 64-25 4-71l49-96c50 47 115 73 179 73 93 0 147-48 147-120 0-76-55-115-148-115h-97v-69l182-196H36v-105h426v74" id="w"/><use transform="matrix(0.035555555555555556,0,0,0.035555555555555556,0,0)" xlink:href="#w" id="f"/><path fill="#03a9f4" d="M156-277h208v-166h110v166h102v105H474V0H364v-172H30v-88l239-440h114" id="x"/><use transform="matrix(0.035555555555555556,0,0,0.035555555555555556,0,0)" xlink:href="#x" id="g"/><path fill="#03a9f4" d="M288-705c132 0 223 69 223 176 0 71-53 151-128 230L201-106h342V0H45v-86l258-277c51-52 85-109 85-149 0-56-44-90-117-90-61 0-132 34-191 88l-47-91c76-62 165-100 255-100" id="y"/><use transform="matrix(0.035555555555555556,0,0,0.035555555555555556,0,0)" xlink:href="#y" id="h"/></defs></g></svg>