<svg xmlns="http://www.w3.org/2000/svg" xmlns:xlink="http://www.w3.org/1999/xlink" width="360" height="440"><g transform="translate(-380 -139)"><path d="M640 200c0 22.64-17.9 41-40 41s-40-18.36-40-41 17.9-41 40-41 40 18.36 40 41z" stroke="#03a9f4" stroke-width="4" fill="none"/><use xlink:href="#a" transform="matrix(1,0,0,1,565,164) translate(25.04 52.24)"/><path d="M720 360c0 22.1-17.9 40-40 40s-40-17.9-40-40 17.9-40 40-40 40 17.9 40 40z" stroke="#03a9f4" stroke-width="4" fill="none"/><use xlink:href="#b" transform="matrix(1,0,0,1,645,325) translate(23.02 51.24)"/><path d="M560 360c0 22.1-17.9 40-40 40s-40-17.9-40-40 17.9-40 40-40 40 17.9 40 40z" stroke="#03a9f4" stroke-width="4" fill="none"/><use xlink:href="#c" transform="matrix(1,0,0,1,485,325) translate(25.04 51.24)"/><path d="M600 241l-.06 1.78-.15 1.68-.27 1.62-.35 1.57-.44 1.53-.54 1.52-.65 1.5-.77 1.53-.9 1.54-1.08 1.6-1.28 1.65-1.53 1.74-1.87 1.88-2.33 2.06-3 2.34-4.06 2.8-6.3 3.74-35.18 18.6-4.07 2.78-3 2.34-2.33 2.06-1.86 1.88-1.52 1.74-1.28 1.66-1.07 1.6-.9 1.53-.78 1.52-.65 1.5-.54 1.52-.44 1.53-.35 1.57-.26 1.62-.14 1.68L520 320" stroke="#03a9f4" stroke-width="4" fill="none"/><path d="M601.92 241.56L600 241l2.1-.1zM528.4 307.58L520 320l-.5-15z" fill="#03a9f4"/><path d="M531.6 306.42l-9.28 13.72L520 320l-2 .07-.6-17.75zm-9.8 7.36l3.4-5.04-3.6-1.05z" fill="#03a9f4"/><path d="M600 241l.06 1.78.15 1.68.27 1.62.35 1.57.44 1.53.54 1.52.65 1.5.77 1.53.9 1.54 1.08 1.6 1.28 1.65 1.53 1.74 1.87 1.88 2.33 2.06 3 2.34 4.06 2.8 6.3 3.74 35.18 18.6 4.07 2.78 3 2.34 2.33 2.06 1.86 1.88 1.52 1.74 1.28 1.66 1.07 1.6.9 1.53.78 1.52.65 1.5.54 1.52.44 1.53.35 1.57.26 1.62.14 1.68.06 1.78" stroke="#03a9f4" stroke-width="4" fill="none"/><path d="M600 241l-1.92.56-.2-.7zM680 320l-8.4-12.42 8.9-2.57z" fill="#03a9f4"/><path d="M682 320.12l-2-.12-2.36.08-9.24-13.66 14.2-4.1zm-7.2-11.38l3.4 5.04.2-6.1z" fill="#03a9f4"/><path d="M480 519c0 22.1-17.9 40-40 40s-40-17.9-40-40 17.9-40 40-40 40 17.9 40 40z" stroke="#03a9f4" stroke-width="4" fill="none"/><use xlink:href="#d" transform="matrix(1,0,0,1,405,484) translate(23.240000000000002 51.24)"/><path d="M640 519c0 22.1-17.9 40-40 40s-40-17.9-40-40 17.9-40 40-40 40 17.9 40 40z" stroke="#03a9f4" stroke-width="4" fill="none"/><use xlink:href="#e" transform="matrix(1,0,0,1,565,484) translate(24.22 51.24)"/><path d="M520 400l-.06 2.1-.18 1.93-.27 1.8-.37 1.7-.45 1.6-.53 1.54-.62 1.5-.7 1.44-.8 1.44-.92 1.42-1.04 1.42-1.2 1.44-1.38 1.46-1.6 1.52-1.92 1.6-2.32 1.7-2.88 1.87-3.8 2.14-5.5 2.68-13.5 5.48-17.06 6.83-5.4 2.62-3.73 2.1-2.82 1.82-2.25 1.66-1.85 1.54-1.56 1.48-1.35 1.4-1.15 1.4-1 1.37-.9 1.35-.76 1.37-.68 1.4-.6 1.42-.5 1.47-.42 1.54-.34 1.6-.26 1.72-.17 1.84-.06 1.98.04 1.42" stroke="#03a9f4" stroke-width="4" fill="none"/><path d="M521.94 400.5L520 400l2.08-.07zM444.63 464.1l-7.5 13-1.57-14.92z" fill="#03a9f4"/><path d="M447.74 462.72l-9.42 16.34-1.2.04-1.75.24-2.1-19.68zm-9.26 8.05l3.04-5.28-3.68-.8z" fill="#03a9f4"/><path d="M520 400l.06 1.78.15 1.68.27 1.62.35 1.57.44 1.53.54 1.52.65 1.5.77 1.53.9 1.54 1.08 1.6 1.28 1.65 1.53 1.74 1.87 1.88 2.33 2.06 3 2.34 4.06 2.8 6.3 3.74 35.18 18.6 4.07 2.78 3 2.34 2.33 2.06 1.86 1.88 1.52 1.74 1.28 1.66 1.07 1.6.9 1.53.78 1.52.65 1.5.54 1.52.44 1.53.35 1.57.26 1.62.14 1.68.06 1.78" stroke="#03a9f4" stroke-width="4" fill="none"/><path d="M520 400l-1.92.56-.2-.7zM600 479l-8.4-12.42 8.9-2.57z" fill="#03a9f4"/><path d="M602 479.12l-2-.12-2.36.08-9.24-13.66 14.2-4.1zm-7.2-11.38l3.4 5.04.2-6.1z" fill="#03a9f4"/><defs><path fill="#03a9f4" d="M463-285H287v175h-75v-175H35v-79h177v-175h75v175h176v79" id="f"/><use transform="matrix(0.04,0,0,0.04,0,0)" xlink:href="#f" id="a"/><path fill="#03a9f4" d="M156-277h208v-166h110v166h102v105H474V0H364v-172H30v-88l239-440h114" id="g"/><use transform="matrix(0.04,0,0,0.04,0,0)" xlink:href="#g" id="b"/><path fill="#03a9f4" d="M304-325l123 124-53 56-124-125-125 125-53-56 123-124L72-448l53-56 125 125 124-125 53 56" id="h"/><use transform="matrix(0.04,0,0,0.04,0,0)" xlink:href="#h" id="c"/><path fill="#03a9f4" d="M288-705c132 0 223 69 223 176 0 71-53 151-128 230L201-106h342V0H45v-86l258-277c51-52 85-109 85-149 0-56-44-90-117-90-61 0-132 34-191 88l-47-91c76-62 165-100 255-100" id="i"/><use transform="matrix(0.04,0,0,0.04,0,0)" xlink:href="#i" id="d"/><path fill="#03a9f4" d="M262-409c133 4 233 69 233 192C495-86 396 5 240 5 154 5 64-25 4-71l49-96c50 47 115 73 179 73 93 0 147-48 147-120 0-76-55-115-148-115h-97v-69l182-196H36v-105h426v74" id="j"/><use transform="matrix(0.04,0,0,0.04,0,0)" xlink:href="#j" id="e"/></defs></g></svg>